<svg width="16" height="16" viewBox="0 0 16 16" fill="none" xmlns="http://www.w3.org/2000/svg">
<path d="M7.53257 3.33168L9.16631 1.69793C9.5034 1.36053 9.90367 1.09284 10.3442 0.910175C10.7848 0.727505 11.257 0.633427 11.734 0.633316C12.2109 0.633205 12.6832 0.727063 13.1239 0.909528C13.5645 1.09199 13.9649 1.35949 14.3021 1.69673C14.6394 2.03398 14.9069 2.43437 15.0894 2.87502C15.2718 3.31568 15.3657 3.78796 15.3656 4.2649C15.3655 4.74184 15.2714 5.21408 15.0887 5.65465C14.906 6.09522 14.6384 6.49548 14.301 6.83257L11.967 9.1665C11.6299 9.50364 11.2296 9.77108 10.7891 9.95354C10.3486 10.136 9.8765 10.2299 9.39971 10.2299C8.92291 10.2299 8.45078 10.136 8.01028 9.95354C7.56978 9.77108 7.16953 9.50364 6.83239 9.1665" stroke="white" stroke-width="1.2" stroke-linecap="round" stroke-linejoin="round"/>
<path d="M8.46632 12.6682L6.83257 14.302C6.49548 14.6394 6.09522 14.9071 5.65465 15.0897C5.21408 15.2724 4.74184 15.3665 4.2649 15.3666C3.78796 15.3667 3.31568 15.2728 2.87502 15.0904C2.43437 14.9079 2.03398 14.6404 1.69673 14.3032C1.35949 13.9659 1.09199 13.5655 0.909528 13.1249C0.727063 12.6842 0.633205 12.2119 0.633316 11.735C0.633427 11.2581 0.727505 10.7858 0.910175 10.3453C1.09285 9.90468 1.36053 9.50442 1.69793 9.16733L4.03186 6.8334C4.369 6.49626 4.76925 6.22882 5.20975 6.04636C5.65025 5.8639 6.12238 5.76998 6.59918 5.76998C7.07597 5.76998 7.5481 5.8639 7.9886 6.04636C8.4291 6.22882 8.82935 6.49626 9.1665 6.8334" stroke="white" stroke-width="1.2" stroke-linecap="round" stroke-linejoin="round"/>
</svg>
