<svg width="13" height="16" viewBox="0 0 13 16" fill="none" xmlns="http://www.w3.org/2000/svg">
<path d="M6.71733 0C2.33133 0.000666667 0 2.81067 0 5.87467C0 7.29533 0.794 9.068 2.06533 9.63C2.428 9.79333 2.38 9.594 2.692 8.40067C2.71667 8.30133 2.704 8.21533 2.624 8.12267C0.806667 6.02067 2.26933 1.69933 6.458 1.69933C12.52 1.69933 11.3873 10.0873 7.51267 10.0873C6.514 10.0873 5.77 9.30333 6.00533 8.33333C6.29067 7.178 6.84933 5.936 6.84933 5.10333C6.84933 3.00467 3.72267 3.316 3.72267 6.09667C3.72267 6.956 4.02667 7.536 4.02667 7.536C4.02667 7.536 3.02067 11.6 2.834 12.3593C2.518 13.6447 2.87667 15.7253 2.908 15.9047C2.92733 16.0033 3.038 16.0347 3.1 15.9533C3.19933 15.8233 4.41533 14.0887 4.756 12.8347C4.88 12.378 5.38867 10.5247 5.38867 10.5247C5.724 11.13 6.69067 11.6367 7.72067 11.6367C10.7847 11.6367 12.9993 8.94333 12.9993 5.60133C12.9887 2.39733 10.2467 0 6.71733 0V0Z" fill="white"/>
</svg>
