<svg width="11" height="10" viewBox="0 0 11 10" fill="none" xmlns="http://www.w3.org/2000/svg">
<path d="M11.0003 4.96082C11.0019 5.07395 10.9879 5.18688 10.9582 5.2961C10.9284 5.40531 10.8834 5.50998 10.8244 5.6066C10.7655 5.70322 10.6933 5.79117 10.6099 5.86777C10.5265 5.94436 10.4327 6.00878 10.3314 6.05915C10.3336 6.08929 10.3355 6.11964 10.3365 6.14999C10.339 6.21052 10.339 6.27114 10.3365 6.33167C10.3355 6.36202 10.3336 6.39237 10.3314 6.42251C10.3314 8.27233 8.176 9.77532 5.51688 9.77532C2.85776 9.77532 0.702388 8.27233 0.702388 6.42251C0.700117 6.39237 0.698259 6.36202 0.697226 6.33167C0.694741 6.27114 0.694741 6.21052 0.697226 6.14999C0.698259 6.11964 0.700117 6.08929 0.702388 6.05915C0.543574 5.98615 0.402519 5.87951 0.288983 5.74662C0.175448 5.61373 0.0921425 5.45775 0.0448334 5.28949C-0.00239692 5.12115 -0.0124577 4.94456 0.0153485 4.77195C0.0431547 4.59933 0.108163 4.43483 0.205867 4.28984C0.303486 4.14488 0.431477 4.02288 0.580959 3.93233C0.730441 3.84178 0.897835 3.78484 1.07153 3.76545C1.24524 3.74598 1.42111 3.76451 1.58695 3.81977C1.75279 3.87503 1.90463 3.96568 2.03195 4.08545C2.2683 3.92525 2.51594 3.78236 2.77291 3.65789C3.02994 3.5336 3.29565 3.4279 3.56796 3.34201C3.84027 3.25613 4.11857 3.19027 4.40038 3.14464C4.68219 3.09902 4.9671 3.07404 5.25262 3.0697L5.86372 0.204123C5.87054 0.170884 5.88396 0.139503 5.90316 0.111425C5.92215 0.0835541 5.94672 0.0596055 5.975 0.0412312C6.00349 0.0228568 6.03529 0.010263 6.06873 0.00406943C6.10197 -0.00191773 6.13624 -0.00129844 6.16927 0.00592744L8.19252 0.410577C8.3967 0.059812 8.8253 -0.0904864 9.20373 0.0556829C9.58216 0.201852 9.79852 0.60134 9.71387 0.998144C9.62943 1.39495 9.26897 1.6716 8.86391 1.65074C8.45864 1.62989 8.12852 1.31773 8.08516 0.914324L6.31792 0.542707L5.78114 3.11925C6.06316 3.12524 6.34455 3.15166 6.62285 3.19811C7.18016 3.29101 7.72115 3.46388 8.22906 3.71136C8.48274 3.83482 8.7272 3.9764 8.96053 4.135C9.12829 3.97393 9.3391 3.86487 9.5675 3.82099C9.7959 3.77695 10.0322 3.79997 10.2478 3.88726C10.4634 3.97451 10.6492 4.12228 10.7827 4.31276C10.9162 4.50325 10.9918 4.72832 11.0003 4.96082ZM2.80491 6.10271C2.84661 6.20284 2.90731 6.29389 2.98411 6.37048C3.06071 6.44728 3.15175 6.50798 3.25188 6.54968C3.35211 6.59113 3.4595 6.61246 3.56796 6.61245C3.902 6.61245 4.20301 6.41115 4.33101 6.10271C4.45881 5.79406 4.38799 5.43896 4.15181 5.20278C3.91563 4.9666 3.56053 4.89578 3.25188 5.02358C2.94344 5.15158 2.74215 5.45259 2.74215 5.78663C2.74215 5.89502 2.76341 6.00238 2.80491 6.10271ZM7.53476 8.08508C7.57708 8.04379 7.60124 7.98743 7.60206 7.92838C7.60289 7.86913 7.57997 7.81215 7.53868 7.76983C7.49739 7.7275 7.44103 7.70335 7.38198 7.70252C7.32273 7.7017 7.26575 7.72461 7.21806 7.76033C7.09388 7.8494 6.96238 7.92779 6.82497 7.99465C6.68755 8.06156 6.54473 8.11674 6.39803 8.15961C6.25144 8.20235 6.10135 8.2327 5.94961 8.25024C5.79766 8.26779 5.64468 8.27233 5.49211 8.26408C5.33974 8.27089 5.18697 8.2647 5.03564 8.2457C4.88427 8.2269 4.7348 8.19512 4.58887 8.15073C4.4427 8.10655 4.30087 8.04998 4.16441 7.98185C4.02794 7.91372 3.89746 7.83403 3.77441 7.74381C3.73168 7.70872 3.67738 7.69075 3.62205 7.69344C3.56672 7.69612 3.51449 7.71945 3.47526 7.75847C3.43624 7.7977 3.41291 7.84993 3.41023 7.90526C3.40755 7.96059 3.42551 8.01489 3.46061 8.05762C3.60574 8.16704 3.75996 8.26366 3.92162 8.34666C4.08327 8.42965 4.25194 8.4984 4.42536 8.55249C4.59878 8.60658 4.77654 8.6456 4.95677 8.66934C5.13701 8.69288 5.31889 8.70093 5.50037 8.6935C5.68184 8.70093 5.86372 8.69288 6.04396 8.66934C6.40495 8.62186 6.75509 8.51271 7.07911 8.34666C7.24077 8.26366 7.39499 8.16704 7.54013 8.05762L7.53476 8.08508ZM7.38322 6.67851C7.49512 6.67975 7.60619 6.65807 7.70962 6.61513C7.81306 6.57198 7.90658 6.50839 7.98462 6.42808C8.06266 6.34777 8.12336 6.25239 8.16341 6.14772C8.20349 6.04317 8.22182 5.93154 8.21729 5.81966C8.21729 5.48562 8.016 5.18461 7.70756 5.05661C7.39891 4.92882 7.04381 4.99963 6.80763 5.23581C6.57145 5.472 6.50063 5.8271 6.62843 6.13575C6.75643 6.44419 7.05744 6.64548 7.39148 6.64548L7.38322 6.67851Z" fill="#1B6392"/>
</svg>
