<svg width="32" height="32" viewBox="0 0 32 32" fill="none" xmlns="http://www.w3.org/2000/svg">
<path opacity="0.2" d="M25 19.1118L20.4 23.7118C20.2746 23.829 20.1227 23.9141 19.9573 23.9599C19.7918 24.0056 19.6178 24.0105 19.45 23.9743L12.2 22.1618C12.0676 22.1249 11.9442 22.061 11.8375 21.9743L5 16.6368L9.075 8.97429L15.4875 7.09929C15.7154 7.03395 15.959 7.05167 16.175 7.14929L20.5 9.11179H17.9125C17.7826 9.11134 17.654 9.1365 17.5339 9.18583C17.4138 9.23516 17.3045 9.3077 17.2125 9.39929L12.3125 14.2868C12.2125 14.3895 12.1354 14.5123 12.0863 14.647C12.0373 14.7818 12.0174 14.9254 12.0281 15.0684C12.0387 15.2114 12.0796 15.3505 12.148 15.4765C12.2164 15.6025 12.3109 15.7125 12.425 15.7993L13.1 16.3118C13.7932 16.8292 14.635 17.1087 15.5 17.1087C16.365 17.1087 17.2068 16.8292 17.9 16.3118L19.5 15.1118L25 19.1118Z" fill="#FA8232"/>
<path d="M30.0875 15.2241L27 16.7616L23 9.11161L26.125 7.54911C26.3572 7.43073 26.6269 7.40898 26.8751 7.48859C27.1233 7.56821 27.33 7.74274 27.45 7.97411L30.525 13.8616C30.5874 13.9795 30.6255 14.1086 30.6372 14.2414C30.6489 14.3742 30.634 14.5081 30.5932 14.635C30.5525 14.762 30.4867 14.8795 30.3999 14.9806C30.313 15.0818 30.2068 15.1646 30.0875 15.2241V15.2241Z" stroke="#FA8232" stroke-width="2" stroke-linecap="round" stroke-linejoin="round"/>
<path d="M4.99979 16.6385L1.91229 15.0885C1.79341 15.0302 1.68746 14.9486 1.60073 14.8486C1.51401 14.7486 1.44829 14.6321 1.40747 14.5062C1.36666 14.3802 1.35159 14.2474 1.36315 14.1155C1.37471 13.9836 1.41268 13.8554 1.47479 13.7385L4.54979 7.85097C4.67008 7.61976 4.87588 7.44464 5.12337 7.36293C5.37086 7.28121 5.64047 7.29934 5.87479 7.41347L8.99979 8.97597L4.99979 16.6385Z" stroke="#FA8232" stroke-width="2" stroke-linecap="round" stroke-linejoin="round"/>
<path d="M27 16.7617L25 19.1117L20.4 23.7117C20.2746 23.829 20.1227 23.9141 19.9573 23.9598C19.7918 24.0055 19.6178 24.0105 19.45 23.9742L12.2 22.1617C12.0676 22.1248 11.9442 22.061 11.8375 21.9742L5 16.6367" stroke="#FA8232" stroke-width="2" stroke-linecap="round" stroke-linejoin="round"/>
<path d="M25.0001 19.1133L19.5001 15.1133L17.9001 16.3133C17.2069 16.8307 16.3651 17.1102 15.5001 17.1102C14.6351 17.1102 13.7933 16.8307 13.1001 16.3133L12.4251 15.8008C12.311 15.714 12.2166 15.604 12.1481 15.478C12.0797 15.352 12.0388 15.2129 12.0282 15.0699C12.0175 14.9269 12.0374 14.7833 12.0864 14.6485C12.1355 14.5138 12.2126 14.391 12.3126 14.2883L17.2126 9.40079C17.3047 9.3092 17.4139 9.23666 17.534 9.18732C17.6541 9.13799 17.7828 9.11283 17.9126 9.11329H23.0001" stroke="#FA8232" stroke-width="2" stroke-linecap="round" stroke-linejoin="round"/>
<path d="M9.0752 8.97429L15.4877 7.09929C15.7155 7.03395 15.9592 7.05167 16.1752 7.14929L20.5002 9.11179" stroke="#FA8232" stroke-width="2" stroke-linecap="round" stroke-linejoin="round"/>
<path d="M14 26.6125L10.2375 25.6625C10.0842 25.6279 9.94221 25.5547 9.825 25.45L7 23" stroke="#FA8232" stroke-width="2" stroke-linecap="round" stroke-linejoin="round"/>
</svg>
