<svg width="40" height="40" viewBox="0 0 40 40" fill="none" xmlns="http://www.w3.org/2000/svg">
<g clip-path="url(#clip0_0_567)">
<path d="M17.3404 26.2704H14.0765L16.1164 13.7338H19.3807L17.3404 26.2704ZM11.3307 13.7338L8.219 22.3565L7.85079 20.4997L7.85112 20.5004L6.75287 14.8626C6.75287 14.8626 6.62007 13.7338 5.20457 13.7338H0.0603624L0 13.9461C0 13.9461 1.57311 14.2733 3.41416 15.379L6.24985 26.2707H9.65059L14.8434 13.7338H11.3307ZM37.0031 26.2704H40.0001L37.3871 13.7334H34.7633C33.5517 13.7334 33.2566 14.6677 33.2566 14.6677L28.3887 26.2704H31.7912L32.4716 24.4082H36.6208L37.0031 26.2704ZM33.4115 21.8358L35.1265 17.1443L36.0913 21.8358H33.4115ZM28.6439 16.7485L29.1097 14.0564C29.1097 14.0564 27.6724 13.5098 26.1741 13.5098C24.5544 13.5098 20.708 14.2177 20.708 17.66C20.708 20.8988 25.2224 20.939 25.2224 22.6402C25.2224 24.3415 21.1731 24.0366 19.8367 22.9639L19.3515 25.7788C19.3515 25.7788 20.8089 26.4867 23.0356 26.4867C25.263 26.4867 28.6231 25.3334 28.6231 22.1946C28.6231 18.935 24.0681 18.6315 24.0681 17.2143C24.0685 15.7968 27.2472 15.9789 28.6439 16.7485Z" fill="white"/>
<path d="M7.85117 20.503L6.7529 14.8651C6.7529 14.8651 6.6201 13.7363 5.2046 13.7363H0.0603627L0 13.9486C0 13.9486 2.47252 14.461 4.8441 16.3809C7.11172 18.2159 7.85117 20.503 7.85117 20.503Z" fill="white"/>
</g>
<defs>
<clipPath id="clip0_0_567">
<rect width="40" height="40" fill="white"/>
</clipPath>
</defs>
</svg>
