<svg width="16" height="13" viewBox="0 0 16 13" fill="none" xmlns="http://www.w3.org/2000/svg">
<path d="M5.03203 12.9293C11.0703 12.9293 14.3724 7.95553 14.3724 3.64244C14.3724 3.50119 14.3695 3.36058 14.3631 3.22056C15.0056 2.75831 15.5601 2.18597 16.0006 1.53038C15.4124 1.79038 14.7794 1.96538 14.1154 2.04428C14.7932 1.64021 15.3135 1.00095 15.559 0.238966C14.9146 0.619053 14.2096 0.886994 13.4744 1.03124C12.8754 0.3968 12.0226 0 11.0782 0C9.26531 0 7.7952 1.46172 7.7952 3.26352C7.7952 3.51968 7.82405 3.76876 7.88037 4.00776C5.15197 3.87126 2.73263 2.57245 1.11347 0.597528C0.82185 1.09564 0.66846 1.66176 0.668969 2.23806C0.668969 3.37047 1.2485 4.37014 2.12984 4.95499C1.60852 4.93916 1.09864 4.79916 0.643082 4.54675C0.642594 4.56045 0.642594 4.5738 0.642594 4.58845C0.642594 6.16915 1.77415 7.48894 3.27626 7.788C2.99414 7.86439 2.70303 7.90301 2.41063 7.90284C2.19947 7.90284 1.99367 7.88219 1.79366 7.84401C2.2116 9.14088 3.42348 10.0846 4.86032 10.111C3.73673 10.9866 2.32136 11.5081 0.783055 11.5081C0.52137 11.5084 0.259899 11.4933 0 11.4629C1.45287 12.3888 3.17801 12.9291 5.0322 12.9291" fill="white"/>
</svg>
